<?xml version="1.0" encoding="UTF-8" standalone="no"?>
<!DOCTYPE svg PUBLIC "-//W3C//DTD SVG 1.1//EN"
 "http://www.w3.org/Graphics/SVG/1.1/DTD/svg11.dtd">
<!-- Generated by graphviz version 2.38.0 (20140413.2041)
 -->
<!-- Title: Graph_1 Pages: 1 -->
<svg width="658pt" height="490pt"
 viewBox="0.00 0.00 658.00 490.30" xmlns="http://www.w3.org/2000/svg" xmlns:xlink="http://www.w3.org/1999/xlink">
<g id="graph0" class="graph" transform="scale(1 1) rotate(0) translate(4 486.295)">
<title>Graph_1</title>
<polygon fill="white" stroke="none" points="-4,4 -4,-486.295 654,-486.295 654,4 -4,4"/>
<g id="clust1" class="cluster"><title>cluster_application</title>
<polygon fill="none" stroke="black" points="8,-8 8,-474.295 588,-474.295 588,-8 8,-8"/>
<text text-anchor="middle" x="298" y="-459.095" font-family="Times,serif" font-size="14.00">Application</text>
</g>
<g id="clust2" class="cluster"><title>cluster_zone_c</title>
<polygon fill="none" stroke="black" points="16,-16 16,-443.295 372,-443.295 372,-16 16,-16"/>
<text text-anchor="middle" x="194" y="-428.095" font-family="Times,serif" font-size="14.00">Zone C</text>
</g>
<g id="clust3" class="cluster"><title>cluster3</title>
<polygon fill="none" stroke="black" points="132,-133 132,-209 364,-209 364,-133 132,-133"/>
<text text-anchor="middle" x="248" y="-193.8" font-family="Times,serif" font-size="14.00">Cluster 3</text>
</g>
<g id="clust4" class="cluster"><title>cluster4</title>
<polygon fill="none" stroke="black" points="24,-24 24,-209 123,-209 123,-24 24,-24"/>
<text text-anchor="middle" x="73.5" y="-193.8" font-family="Times,serif" font-size="14.00">Cluster 4</text>
</g>
<g id="clust5" class="cluster"><title>cluster_zone_b</title>
<polygon fill="none" stroke="black" points="381,-24 381,-100 559,-100 559,-24 381,-24"/>
<text text-anchor="middle" x="470" y="-84.8" font-family="Times,serif" font-size="14.00">Zone B</text>
</g>
<g id="clust6" class="cluster"><title>cluster_zone_a</title>
<polygon fill="none" stroke="black" points="393,-133 393,-334.295 580,-334.295 580,-133 393,-133"/>
<text text-anchor="middle" x="486.5" y="-319.095" font-family="Times,serif" font-size="14.00">Zone A</text>
</g>
<!-- User2 -->
<g id="node1" class="node"><title>User2</title>
<polygon fill="none" stroke="black" points="140,-375.795 140,-411.795 194,-411.795 194,-375.795 140,-375.795"/>
<text text-anchor="middle" x="167" y="-390.095" font-family="Times,serif" font-size="14.00">User2</text>
</g>
<!-- LB2 -->
<g id="node2" class="node"><title>LB2</title>
<ellipse fill="lightgray" stroke="black" cx="167" cy="-276.648" rx="26.7961" ry="26.7961"/>
<text text-anchor="middle" x="167" y="-272.948" font-family="Times,serif" font-size="14.00">LB2</text>
</g>
<!-- User2&#45;&gt;LB2 -->
<g id="edge14" class="edge"><title>User2&#45;&gt;LB2</title>
<path fill="none" stroke="black" d="M167,-375.307C167,-359.02 167,-334.237 167,-313.712"/>
<polygon fill="black" stroke="black" points="170.5,-313.435 167,-303.435 163.5,-313.435 170.5,-313.435"/>
<text text-anchor="middle" x="178" y="-346.095" font-family="Times,serif" font-size="14.00">123</text>
</g>
<!-- HostE -->
<g id="node3" class="node"><title>HostE</title>
<polygon fill="none" stroke="black" points="302,-141.5 302,-177.5 356,-177.5 356,-141.5 302,-141.5"/>
<text text-anchor="middle" x="329" y="-155.8" font-family="Times,serif" font-size="14.00">HostE</text>
</g>
<!-- LB2&#45;&gt;HostE -->
<g id="edge11" class="edge"><title>LB2&#45;&gt;HostE</title>
<path fill="none" stroke="black" d="M188.512,-260.357C216.244,-240.645 264.71,-206.197 296.83,-183.366"/>
<polygon fill="black" stroke="black" points="298.9,-186.189 305.023,-177.542 294.845,-180.483 298.9,-186.189"/>
<text text-anchor="middle" x="262.5" y="-220.8" font-family="Times,serif" font-size="14.00">1234</text>
</g>
<!-- HostG -->
<g id="node4" class="node"><title>HostG</title>
<polygon fill="none" stroke="black" points="140,-141.5 140,-177.5 194,-177.5 194,-141.5 140,-141.5"/>
<text text-anchor="middle" x="167" y="-155.8" font-family="Times,serif" font-size="14.00">HostG</text>
</g>
<!-- LB2&#45;&gt;HostG -->
<g id="edge13" class="edge"><title>LB2&#45;&gt;HostG</title>
<path fill="none" stroke="black" d="M167,-249.806C167,-231.318 167,-206.481 167,-187.693"/>
<polygon fill="black" stroke="black" points="170.5,-187.69 167,-177.69 163.5,-187.69 170.5,-187.69"/>
<text text-anchor="middle" x="181.5" y="-220.8" font-family="Times,serif" font-size="14.00">2345</text>
</g>
<!-- HostF -->
<g id="node5" class="node"><title>HostF</title>
<polygon fill="none" stroke="black" points="32,-141.5 32,-177.5 86,-177.5 86,-141.5 32,-141.5"/>
<text text-anchor="middle" x="59" y="-155.8" font-family="Times,serif" font-size="14.00">HostF</text>
</g>
<!-- LB2&#45;&gt;HostF -->
<g id="edge12" class="edge"><title>LB2&#45;&gt;HostF</title>
<path fill="none" stroke="black" stroke-dasharray="5,2" d="M148.929,-257.038C141.482,-249.325 132.79,-240.265 125,-232 110.472,-216.585 94.3414,-199.117 81.6639,-185.306"/>
<polygon fill="black" stroke="black" points="83.974,-182.646 74.6368,-177.639 78.8138,-187.376 83.974,-182.646"/>
<text text-anchor="middle" x="139.5" y="-220.8" font-family="Times,serif" font-size="14.00">1234</text>
</g>
<!-- HostE&#45;&gt;HostG -->
<g id="edge6" class="edge"><title>HostE&#45;&gt;HostG</title>
<path fill="none" stroke="black" d="M301.796,-159.5C275.014,-159.5 233.911,-159.5 204.133,-159.5"/>
<polygon fill="black" stroke="black" points="204.115,-156 194.115,-159.5 204.115,-163 204.115,-156"/>
<text text-anchor="middle" x="248" y="-166.3" font-family="Times,serif" font-size="14.00">3456</text>
</g>
<!-- HostH -->
<g id="node6" class="node"><title>HostH</title>
<polygon fill="none" stroke="black" points="60,-32.5 60,-68.5 114,-68.5 114,-32.5 60,-32.5"/>
<text text-anchor="middle" x="87" y="-46.8" font-family="Times,serif" font-size="14.00">HostH</text>
</g>
<!-- HostG&#45;&gt;HostH -->
<g id="edge9" class="edge"><title>HostG&#45;&gt;HostH</title>
<path fill="none" stroke="black" d="M154.147,-141.309C141.084,-123.837 120.708,-96.5841 105.826,-76.6795"/>
<polygon fill="black" stroke="black" points="108.613,-74.5619 99.8215,-68.6487 103.006,-78.7536 108.613,-74.5619"/>
<text text-anchor="middle" x="153.5" y="-111.8" font-family="Times,serif" font-size="14.00">4567</text>
</g>
<!-- HostC -->
<g id="node7" class="node"><title>HostC</title>
<polygon fill="none" stroke="black" points="389,-32.5 389,-68.5 443,-68.5 443,-32.5 389,-32.5"/>
<text text-anchor="middle" x="416" y="-46.8" font-family="Times,serif" font-size="14.00">HostC</text>
</g>
<!-- HostG&#45;&gt;HostC -->
<g id="edge8" class="edge"><title>HostG&#45;&gt;HostC</title>
<path fill="none" stroke="black" d="M193.336,-141.446C210.236,-130.95 232.894,-117.699 254,-108 295.575,-88.8949 345.584,-72.3749 378.937,-62.2163"/>
<polygon fill="black" stroke="black" points="380.157,-65.5042 388.725,-59.272 378.141,-58.8009 380.157,-65.5042"/>
<text text-anchor="middle" x="268.5" y="-111.8" font-family="Times,serif" font-size="14.00">2345</text>
</g>
<!-- HostD -->
<g id="node8" class="node"><title>HostD</title>
<polygon fill="none" stroke="black" points="497,-32.5 497,-68.5 551,-68.5 551,-32.5 497,-32.5"/>
<text text-anchor="middle" x="524" y="-46.8" font-family="Times,serif" font-size="14.00">HostD</text>
</g>
<!-- HostG&#45;&gt;HostD -->
<g id="edge10" class="edge"><title>HostG:se&#45;&gt;HostD:nw</title>
<path fill="none" stroke="black" d="M194,-140.5C195.912,-138.588 383.319,-108.354 386,-108 404.59,-105.545 453.287,-108.502 470,-100 482.732,-93.5232 484.212,-86.2481 490.559,-77.178"/>
<polygon fill="black" stroke="black" points="493.254,-79.4106 497,-69.5 487.891,-74.9115 493.254,-79.4106"/>
<text text-anchor="middle" x="400.5" y="-111.8" font-family="Times,serif" font-size="14.00">2345</text>
</g>
<!-- HostF&#45;&gt;HostH -->
<g id="edge7" class="edge"><title>HostF&#45;&gt;HostH</title>
<path fill="none" stroke="black" stroke-dasharray="5,2" d="M63.4987,-141.309C67.9278,-124.383 74.7591,-98.2779 79.9172,-78.5665"/>
<polygon fill="black" stroke="black" points="83.3668,-79.2091 82.5125,-68.6487 76.5948,-77.4369 83.3668,-79.2091"/>
<text text-anchor="middle" x="87.5" y="-111.8" font-family="Times,serif" font-size="14.00">3456</text>
</g>
<!-- LB1 -->
<g id="node9" class="node"><title>LB1</title>
<ellipse fill="lightgray" stroke="black" cx="543" cy="-276.648" rx="26.7961" ry="26.7961"/>
<text text-anchor="middle" x="543" y="-272.948" font-family="Times,serif" font-size="14.00">LB1</text>
</g>
<!-- HostA -->
<g id="node10" class="node"><title>HostA</title>
<polygon fill="none" stroke="black" points="410,-141.5 410,-177.5 464,-177.5 464,-141.5 410,-141.5"/>
<text text-anchor="middle" x="437" y="-155.8" font-family="Times,serif" font-size="14.00">HostA</text>
</g>
<!-- LB1&#45;&gt;HostA -->
<g id="edge2" class="edge"><title>LB1&#45;&gt;HostA</title>
<path fill="none" stroke="black" d="M524.865,-257.097C517.408,-249.394 508.726,-240.325 501,-232 486.789,-216.689 471.145,-199.223 458.881,-185.387"/>
<polygon fill="black" stroke="black" points="461.334,-182.876 452.088,-177.703 456.09,-187.513 461.334,-182.876"/>
<text text-anchor="middle" x="515.5" y="-220.8" font-family="Times,serif" font-size="14.00">1234</text>
</g>
<!-- HostB -->
<g id="node11" class="node"><title>HostB</title>
<polygon fill="none" stroke="black" points="518,-141.5 518,-177.5 572,-177.5 572,-141.5 518,-141.5"/>
<text text-anchor="middle" x="545" y="-155.8" font-family="Times,serif" font-size="14.00">HostB</text>
</g>
<!-- LB1&#45;&gt;HostB -->
<g id="edge3" class="edge"><title>LB1&#45;&gt;HostB</title>
<path fill="none" stroke="black" d="M543.449,-249.806C543.77,-231.318 544.201,-206.481 544.528,-187.693"/>
<polygon fill="black" stroke="black" points="548.027,-187.749 544.701,-177.69 541.028,-187.628 548.027,-187.749"/>
<text text-anchor="middle" x="558.5" y="-220.8" font-family="Times,serif" font-size="14.00">1234</text>
</g>
<!-- HostA&#45;&gt;HostC -->
<g id="edge4" class="edge"><title>HostA&#45;&gt;HostC</title>
<path fill="none" stroke="black" d="M433.626,-141.309C430.304,-124.383 425.181,-98.2779 421.312,-78.5665"/>
<polygon fill="black" stroke="black" points="424.726,-77.7875 419.366,-68.6487 417.857,-79.1356 424.726,-77.7875"/>
<text text-anchor="middle" x="444.5" y="-111.8" font-family="Times,serif" font-size="14.00">2345</text>
</g>
<!-- HostB&#45;&gt;HostD -->
<g id="edge5" class="edge"><title>HostB&#45;&gt;HostD</title>
<path fill="none" stroke="black" d="M541.626,-141.309C538.304,-124.383 533.181,-98.2779 529.312,-78.5665"/>
<polygon fill="black" stroke="black" points="532.726,-77.7875 527.366,-68.6487 525.857,-79.1356 532.726,-77.7875"/>
<text text-anchor="middle" x="551.5" y="-111.8" font-family="Times,serif" font-size="14.00">2345</text>
</g>
<!-- User1 -->
<g id="node12" class="node"><title>User1</title>
<polygon fill="none" stroke="black" points="596,-375.795 596,-411.795 650,-411.795 650,-375.795 596,-375.795"/>
<text text-anchor="middle" x="623" y="-390.095" font-family="Times,serif" font-size="14.00">User1</text>
</g>
<!-- User1&#45;&gt;LB1 -->
<g id="edge1" class="edge"><title>User1&#45;&gt;LB1</title>
<path fill="none" stroke="black" d="M610.85,-375.307C598.402,-357.391 578.813,-329.194 563.876,-307.695"/>
<polygon fill="black" stroke="black" points="566.578,-305.45 557.998,-299.234 560.829,-309.444 566.578,-305.45"/>
<text text-anchor="middle" x="608" y="-346.095" font-family="Times,serif" font-size="14.00">123</text>
</g>
</g>
</svg>
