<?xml version="1.0" encoding="UTF-8" standalone="no"?>
<!DOCTYPE svg PUBLIC "-//W3C//DTD SVG 1.1//EN"
 "http://www.w3.org/Graphics/SVG/1.1/DTD/svg11.dtd">
<!-- Generated by graphviz version 2.38.0 (20140413.2041)
 -->
<!-- Title: Application Pages: 1 -->
<svg width="460pt" height="453pt"
 viewBox="0.00 0.00 460.00 453.00" xmlns="http://www.w3.org/2000/svg" xmlns:xlink="http://www.w3.org/1999/xlink">
<g id="graph0" class="graph" transform="scale(1 1) rotate(0) translate(4 449)">
<title>Application</title>
<polygon fill="white" stroke="none" points="-4,4 -4,-449 456,-449 456,4 -4,4"/>
<text text-anchor="middle" x="226" y="-7.8" font-family="Trebuchet MS" font-size="14.00">Application</text>
<g id="clust1" class="cluster"><title>cluster_zone_c</title>
<polygon fill="none" stroke="black" points="8,-31 8,-300 444,-300 444,-31 8,-31"/>
<text text-anchor="middle" x="226" y="-284.8" font-family="Trebuchet MS" font-size="14.00">Zone C</text>
</g>
<g id="clust2" class="cluster"><title>cluster_zone_c_1</title>
<polygon fill="none" stroke="black" points="206,-122 206,-269 322,-269 322,-122 206,-122"/>
<text text-anchor="middle" x="264" y="-253.8" font-family="Trebuchet MS" font-size="14.00">Cluster Zone C1</text>
</g>
<g id="clust3" class="cluster"><title>cluster_zone_c_2</title>
<polygon fill="none" stroke="black" points="229,-39 229,-114 436,-114 436,-39 229,-39"/>
<text text-anchor="middle" x="332.5" y="-98.8" font-family="Trebuchet MS" font-size="14.00">Cluster Zone C2</text>
</g>
<g id="clust4" class="cluster"><title>cluster_zone_b</title>
<polygon fill="none" stroke="black" points="366,-308 366,-437 436,-437 436,-308 366,-308"/>
<text text-anchor="middle" x="401" y="-421.8" font-family="Trebuchet MS" font-size="14.00">Zone B</text>
</g>
<g id="clust5" class="cluster"><title>cluster_zone_a</title>
<polygon fill="none" stroke="black" points="110,-308 110,-437 299,-437 299,-308 110,-308"/>
<text text-anchor="middle" x="204.5" y="-421.8" font-family="Trebuchet MS" font-size="14.00">Zone A</text>
</g>
<!-- HostE -->
<g id="node1" class="node"><title>HostE</title>
<polygon fill="#ffeecc" stroke="#ddaa66" points="291,-166 237,-166 237,-130 291,-130 291,-166"/>
<text text-anchor="middle" x="264" y="-146.1" font-family="Trebuchet MS" font-size="8.00" fill="#775500">HostE</text>
</g>
<!-- HostG -->
<g id="node2" class="node"><title>HostG</title>
<polygon fill="#ffeecc" stroke="#ddaa66" points="291,-238 237,-238 237,-202 291,-202 291,-238"/>
<text text-anchor="middle" x="264" y="-218.1" font-family="Trebuchet MS" font-size="8.00" fill="#775500">HostG</text>
</g>
<!-- HostE&#45;&gt;HostG -->
<g id="edge1" class="edge"><title>HostE&#45;&gt;HostG</title>
<path fill="none" stroke="#999999" d="M264,-166.169C264,-175.392 264,-186.705 264,-196.575"/>
<polygon fill="#999999" stroke="#999999" points="262.25,-196.587 264,-201.587 265.75,-196.587 262.25,-196.587"/>
<text text-anchor="middle" x="257.5" y="-182.7" font-family="Verdana" font-size="6.00" fill="#444444">3456</text>
</g>
<!-- HostH -->
<g id="node4" class="node"><title>HostH</title>
<polygon fill="#ffeecc" stroke="#ddaa66" points="428,-83 374,-83 374,-47 428,-47 428,-83"/>
<text text-anchor="middle" x="401" y="-63.1" font-family="Trebuchet MS" font-size="8.00" fill="#775500">HostH</text>
</g>
<!-- HostG&#45;&gt;HostH -->
<g id="edge7" class="edge"><title>HostG&#45;&gt;HostH</title>
<path fill="none" stroke="#999999" d="M291.009,-201.954C301.227,-194.248 312.709,-184.782 322,-175 347.998,-147.628 372.191,-111.096 386.538,-87.8026"/>
<polygon fill="#999999" stroke="#999999" points="388.16,-88.506 389.274,-83.3272 385.173,-86.6805 388.16,-88.506"/>
<text text-anchor="middle" x="348" y="-155.2" font-family="Verdana" font-size="6.00" fill="#444444">4567</text>
</g>
<!-- HostC -->
<g id="node7" class="node"><title>HostC</title>
<polygon fill="#ffeecc" stroke="#ddaa66" points="428,-406 374,-406 374,-370 428,-370 428,-406"/>
<text text-anchor="middle" x="401" y="-386.1" font-family="Trebuchet MS" font-size="8.00" fill="#775500">HostC</text>
</g>
<!-- HostG&#45;&gt;HostC -->
<g id="edge10" class="edge"><title>HostG&#45;&gt;HostC</title>
<path fill="none" stroke="#999999" d="M285.818,-238.025C306.577,-257.11 337.904,-289.112 356,-323 364.226,-338.405 356.451,-346.378 366,-361 367.205,-362.846 368.579,-364.623 370.067,-366.322"/>
<polygon fill="#999999" stroke="#999999" points="369,-367.738 373.721,-370.141 371.53,-365.319 369,-367.738"/>
<text text-anchor="middle" x="348" y="-325.2" font-family="Verdana" font-size="6.00" fill="#444444">2345</text>
</g>
<!-- HostD -->
<g id="node8" class="node"><title>HostD</title>
<polygon fill="#ffeecc" stroke="#ddaa66" points="428,-352 374,-352 374,-316 428,-316 428,-352"/>
<text text-anchor="middle" x="401" y="-332.1" font-family="Trebuchet MS" font-size="8.00" fill="#775500">HostD</text>
</g>
<!-- HostG&#45;&gt;HostD -->
<g id="edge11" class="edge"><title>HostG:se&#45;&gt;HostD:nw</title>
<path fill="none" stroke="#999999" d="M292,-202C318.52,-175.48 337.398,-224.434 356,-257 376.277,-292.499 345.792,-374.184 369.15,-355.502"/>
<polygon fill="#999999" stroke="#999999" points="370.479,-356.659 373,-352 368.124,-354.07 370.479,-356.659"/>
<text text-anchor="middle" x="348" y="-259.2" font-family="Verdana" font-size="6.00" fill="#444444">2345</text>
</g>
<!-- HostF -->
<g id="node3" class="node"><title>HostF</title>
<polygon fill="#ffeecc" stroke="#ddaa66" points="291,-83 237,-83 237,-47 291,-47 291,-83"/>
<text text-anchor="middle" x="264" y="-63.1" font-family="Trebuchet MS" font-size="8.00" fill="#775500">HostF</text>
</g>
<!-- HostF&#45;&gt;HostH -->
<g id="edge2" class="edge"><title>HostF&#45;&gt;HostH</title>
<path fill="none" stroke="#999999" stroke-dasharray="5,2" d="M291.029,-65C313.111,-65 344.861,-65 368.398,-65"/>
<polygon fill="#999999" stroke="#999999" points="368.59,-66.7501 373.59,-65 368.59,-63.2501 368.59,-66.7501"/>
<text text-anchor="middle" x="348" y="-67.2" font-family="Verdana" font-size="6.00" fill="#444444">3456</text>
</g>
<!-- User2 -->
<g id="node5" class="node"><title>User2</title>
<polygon fill="#ffeecc" stroke="#ddaa66" points="70,-166 16,-166 16,-130 70,-130 70,-166"/>
<text text-anchor="middle" x="43" y="-146.1" font-family="Trebuchet MS" font-size="8.00" fill="#775500">User2</text>
</g>
<!-- LB2 -->
<g id="node6" class="node"><title>LB2</title>
<ellipse fill="#ffeecc" stroke="#ddaa66" cx="136" cy="-148" rx="18" ry="18"/>
<text text-anchor="middle" x="136" y="-146.1" font-family="Trebuchet MS" font-size="8.00" fill="#775500">LB2</text>
</g>
<!-- User2&#45;&gt;LB2 -->
<g id="edge3" class="edge"><title>User2&#45;&gt;LB2</title>
<path fill="none" stroke="#999999" d="M70.321,-148C83.7326,-148 99.8655,-148 112.664,-148"/>
<polygon fill="#999999" stroke="#999999" points="112.927,-149.75 117.927,-148 112.927,-146.25 112.927,-149.75"/>
<text text-anchor="middle" x="94" y="-150.2" font-family="Verdana" font-size="6.00" fill="#444444">123</text>
</g>
<!-- LB2&#45;&gt;HostE -->
<g id="edge4" class="edge"><title>LB2&#45;&gt;HostE</title>
<path fill="none" stroke="#999999" d="M154.256,-148C174.139,-148 207.213,-148 231.675,-148"/>
<polygon fill="#999999" stroke="#999999" points="231.756,-149.75 236.756,-148 231.756,-146.25 231.756,-149.75"/>
<text text-anchor="middle" x="180" y="-150.2" font-family="Verdana" font-size="6.00" fill="#444444">1234</text>
</g>
<!-- LB2&#45;&gt;HostG -->
<g id="edge5" class="edge"><title>LB2&#45;&gt;HostG</title>
<path fill="none" stroke="#999999" d="M151.949,-156.542C171.586,-167.764 206.56,-187.749 232.025,-202.3"/>
<polygon fill="#999999" stroke="#999999" points="231.454,-203.989 236.663,-204.95 233.19,-200.95 231.454,-203.989"/>
<text text-anchor="middle" x="180" y="-178.2" font-family="Verdana" font-size="6.00" fill="#444444">2345</text>
</g>
<!-- LB2&#45;&gt;HostF -->
<g id="edge6" class="edge"><title>LB2&#45;&gt;HostF</title>
<path fill="none" stroke="#999999" stroke-dasharray="5,2" d="M151.454,-138.479C171.13,-125.518 206.836,-101.997 232.558,-85.0532"/>
<polygon fill="#999999" stroke="#999999" points="233.704,-86.3939 236.917,-82.1819 231.778,-83.4711 233.704,-86.3939"/>
<text text-anchor="middle" x="180" y="-126.2" font-family="Verdana" font-size="6.00" fill="#444444">1234</text>
</g>
<!-- HostA -->
<g id="node9" class="node"><title>HostA</title>
<polygon fill="#ffeecc" stroke="#ddaa66" points="291,-406 237,-406 237,-370 291,-370 291,-406"/>
<text text-anchor="middle" x="264" y="-386.1" font-family="Trebuchet MS" font-size="8.00" fill="#775500">HostA</text>
</g>
<!-- HostA&#45;&gt;HostC -->
<g id="edge12" class="edge"><title>HostA&#45;&gt;HostC</title>
<path fill="none" stroke="#999999" d="M291.029,-388C313.111,-388 344.861,-388 368.398,-388"/>
<polygon fill="#999999" stroke="#999999" points="368.59,-389.75 373.59,-388 368.59,-386.25 368.59,-389.75"/>
<text text-anchor="middle" x="348" y="-390.2" font-family="Verdana" font-size="6.00" fill="#444444">2345</text>
</g>
<!-- HostB -->
<g id="node10" class="node"><title>HostB</title>
<polygon fill="#ffeecc" stroke="#ddaa66" points="291,-352 237,-352 237,-316 291,-316 291,-352"/>
<text text-anchor="middle" x="264" y="-332.1" font-family="Trebuchet MS" font-size="8.00" fill="#775500">HostB</text>
</g>
<!-- HostB&#45;&gt;HostD -->
<g id="edge13" class="edge"><title>HostB&#45;&gt;HostD</title>
<path fill="none" stroke="#999999" d="M291.029,-334C313.111,-334 344.861,-334 368.398,-334"/>
<polygon fill="#999999" stroke="#999999" points="368.59,-335.75 373.59,-334 368.59,-332.25 368.59,-335.75"/>
<text text-anchor="middle" x="348" y="-336.2" font-family="Verdana" font-size="6.00" fill="#444444">2345</text>
</g>
<!-- LB1 -->
<g id="node11" class="node"><title>LB1</title>
<ellipse fill="#ffeecc" stroke="#ddaa66" cx="136" cy="-349" rx="18" ry="18"/>
<text text-anchor="middle" x="136" y="-347.1" font-family="Trebuchet MS" font-size="8.00" fill="#775500">LB1</text>
</g>
<!-- LB1&#45;&gt;HostA -->
<g id="edge8" class="edge"><title>LB1&#45;&gt;HostA</title>
<path fill="none" stroke="#999999" d="M153.472,-354.099C173.359,-360.254 207.222,-370.735 232.042,-378.418"/>
<polygon fill="#999999" stroke="#999999" points="231.584,-380.108 236.878,-379.915 232.619,-376.764 231.584,-380.108"/>
<text text-anchor="middle" x="180" y="-365.2" font-family="Verdana" font-size="6.00" fill="#444444">1234</text>
</g>
<!-- LB1&#45;&gt;HostB -->
<g id="edge9" class="edge"><title>LB1&#45;&gt;HostB</title>
<path fill="none" stroke="#999999" d="M153.993,-346.977C173.81,-344.618 206.981,-340.669 231.538,-337.746"/>
<polygon fill="#999999" stroke="#999999" points="231.881,-339.467 236.639,-337.138 231.467,-335.992 231.881,-339.467"/>
<text text-anchor="middle" x="180" y="-347.2" font-family="Verdana" font-size="6.00" fill="#444444">1234</text>
</g>
<!-- User1 -->
<g id="node12" class="node"><title>User1</title>
<polygon fill="#ffeecc" stroke="#ddaa66" points="70,-367 16,-367 16,-331 70,-331 70,-367"/>
<text text-anchor="middle" x="43" y="-347.1" font-family="Trebuchet MS" font-size="8.00" fill="#775500">User1</text>
</g>
<!-- User1&#45;&gt;LB1 -->
<g id="edge14" class="edge"><title>User1&#45;&gt;LB1</title>
<path fill="none" stroke="#999999" d="M70.321,-349C83.7326,-349 99.8655,-349 112.664,-349"/>
<polygon fill="#999999" stroke="#999999" points="112.927,-350.75 117.927,-349 112.927,-347.25 112.927,-350.75"/>
<text text-anchor="middle" x="94" y="-351.2" font-family="Verdana" font-size="6.00" fill="#444444">123</text>
</g>
</g>
</svg>
